<?xml version="1.0" standalone="no"?>
<!DOCTYPE svg PUBLIC "-//W3C//DTD SVG 20010904//EN"
 "http://www.w3.org/TR/2001/REC-SVG-20010904/DTD/svg10.dtd">
<svg version="1.0" xmlns="http://www.w3.org/2000/svg"
 width="808.000000pt" height="721.000000pt" viewBox="0 0 808.000000 721.000000"
 preserveAspectRatio="xMidYMid meet">

<g transform="translate(0.000000,721.000000) scale(0.100000,-0.100000)"
fill="#000000" stroke="none">
<path d="M3380 7184 c-936 -68 -1761 -459 -2397 -1136 -518 -551 -845 -1257
-940 -2028 -21 -178 -24 -618 -5 -785 39 -335 108 -619 222 -920 447 -1173
1506 -2037 2750 -2244 756 -126 1525 -10 2211 334 595 299 1114 781 1459 1354
79 131 205 389 258 523 84 219 160 482 192 671 l12 67 197 0 c224 0 301 12
401 62 92 46 216 171 259 261 79 166 79 347 0 514 -42 89 -166 214 -259 261
-100 50 -177 62 -401 62 l-196 0 -12 73 c-28 172 -103 436 -191 672 -32 85
-159 349 -221 458 -343 602 -880 1112 -1498 1422 -379 190 -780 311 -1191 360
-129 15 -535 27 -650 19z m615 -519 c379 -50 680 -145 1030 -323 814 -415
1415 -1205 1599 -2102 49 -241 60 -356 60 -635 0 -279 -11 -394 -60 -635 -168
-818 -683 -1550 -1401 -1993 -691 -425 -1556 -562 -2343 -371 -1425 348 -2409
1642 -2356 3099 18 498 138 943 368 1370 139 257 314 491 523 701 535 537
1227 854 1985 908 112 8 479 -4 595 -19z"/>
<path d="M3445 6094 c-377 -37 -645 -109 -930 -249 -240 -117 -437 -254 -628
-435 -411 -391 -663 -882 -754 -1470 -24 -159 -24 -509 1 -670 43 -282 116
-523 230 -755 135 -274 260 -449 476 -666 211 -213 407 -353 675 -484 352
-172 688 -249 1090 -249 402 0 738 77 1090 249 268 131 464 271 675 484 216
217 341 393 475 666 116 236 188 473 231 755 25 160 25 510 0 670 -36 239 -90
434 -175 635 -345 813 -1082 1377 -1961 1500 -111 15 -414 27 -495 19z"/>
</g>
</svg>
